<svg xmlns="http://www.w3.org/2000/svg" viewBox="0 0 40 40">
  <defs>
    <radialGradient id="baseballGrad" cx="30%" cy="30%" r="70%">
      <stop offset="0%" style="stop-color:#ffffff"/>
      <stop offset="100%" style="stop-color:#f5f5f5"/>
    </radialGradient>
  </defs>
  <circle cx="20" cy="20" r="18" fill="url(#baseballGrad)" stroke="#e0e0e0" stroke-width="1"/>
  <!-- Stitching -->
  <path d="M8,8 Q4,15 8,20 Q4,25 8,32" fill="none" stroke="#d32f2f" stroke-width="1.5"/>
  <path d="M32,8 Q36,15 32,20 Q36,25 32,32" fill="none" stroke="#d32f2f" stroke-width="1.5"/>
  <!-- Stitch marks left -->
  <line x1="6" y1="10" x2="10" y2="12" stroke="#d32f2f" stroke-width="1"/>
  <line x1="5" y1="15" x2="9" y2="16" stroke="#d32f2f" stroke-width="1"/>
  <line x1="5" y1="20" x2="9" y2="20" stroke="#d32f2f" stroke-width="1"/>
  <line x1="5" y1="25" x2="9" y2="24" stroke="#d32f2f" stroke-width="1"/>
  <line x1="6" y1="30" x2="10" y2="28" stroke="#d32f2f" stroke-width="1"/>
  <!-- Stitch marks right -->
  <line x1="34" y1="10" x2="30" y2="12" stroke="#d32f2f" stroke-width="1"/>
  <line x1="35" y1="15" x2="31" y2="16" stroke="#d32f2f" stroke-width="1"/>
  <line x1="35" y1="20" x2="31" y2="20" stroke="#d32f2f" stroke-width="1"/>
  <line x1="35" y1="25" x2="31" y2="24" stroke="#d32f2f" stroke-width="1"/>
  <line x1="34" y1="30" x2="30" y2="28" stroke="#d32f2f" stroke-width="1"/>
</svg>
