<svg xmlns="http://www.w3.org/2000/svg" viewBox="0 0 60 40">
  <!-- Body -->
  <ellipse cx="20" cy="22" rx="8" ry="6" fill="#212121"/>
  <ellipse cx="35" cy="22" rx="12" ry="10" fill="#1a1a1a"/>
  <!-- Legs left -->
  <path d="M20,18 Q10,8 2,5" fill="none" stroke="#212121" stroke-width="2" stroke-linecap="round"/>
  <path d="M18,20 Q8,15 0,15" fill="none" stroke="#212121" stroke-width="2" stroke-linecap="round"/>
  <path d="M18,24 Q8,25 0,30" fill="none" stroke="#212121" stroke-width="2" stroke-linecap="round"/>
  <path d="M20,26 Q12,32 5,38" fill="none" stroke="#212121" stroke-width="2" stroke-linecap="round"/>
  <!-- Legs right -->
  <path d="M40,18 Q50,8 58,5" fill="none" stroke="#1a1a1a" stroke-width="2" stroke-linecap="round"/>
  <path d="M42,20 Q52,15 60,15" fill="none" stroke="#1a1a1a" stroke-width="2" stroke-linecap="round"/>
  <path d="M42,24 Q52,25 60,30" fill="none" stroke="#1a1a1a" stroke-width="2" stroke-linecap="round"/>
  <path d="M40,26 Q48,32 55,38" fill="none" stroke="#1a1a1a" stroke-width="2" stroke-linecap="round"/>
  <!-- Eyes -->
  <circle cx="14" cy="20" r="2" fill="#b71c1c"/>
  <circle cx="18" cy="18" r="2" fill="#b71c1c"/>
  <circle cx="14" cy="20" r="0.8" fill="#ff5252"/>
  <circle cx="18" cy="18" r="0.8" fill="#ff5252"/>
</svg>
